# xmcd
#
# Track frame offsets: 
#        150
#        10741
#        20071
#        33430
#        64177
#        78004
#        96218
#        111734
#        127412
#        136946
#
# Disc length: 1994 seconds
#
# Revision: 0
# Processed by: cddbd v1.5.2PL0 Copyright (c) Steve Scherf et al.
# Submitted via: ExactAudioCopy v0.99pb3
#
DISCID=8807c80a
DTITLE=James Cotton - Vanguard Visionaries: James Cotton
DYEAR=2007
DGENRE=Blues
TTITLE0=Cotton Crop Blues
TTITLE1=Rocket 88
TTITLE2=Cut You Loose
TTITLE3=Negative IO-4
TTITLE4=Next Time You See Me
TTITLE5=The Blues Keep Falling
TTITLE6=Love Me Or Leave Me
TTITLE7=West Helena Blues
TTITLE8=Got To Get You Off Of My Mind
TTITLE9=Honest I Do
EXTD=
EXTT0=
EXTT1=
EXTT2=
EXTT3=
EXTT4=
EXTT5=
EXTT6=
EXTT7=
EXTT8=
EXTT9=
PLAYORDER=
